<svg xmlns="http://www.w3.org/2000/svg" width="720" height="488" viewBox="0 0 720 488" font-family="system-ui,Segoe UI,Arial"><rect width="720" height="488" fill="#ffffff"/><text x="20" y="30" font-size="18" font-weight="700" fill="#264653">Optical Fiber Sensors — papers by research area</text><text x="250" y="66" text-anchor="end" font-size="13" fill="#333">Distributed Acoustic Sensing (DAS)</text><rect x="260" y="53" width="400" height="20" rx="4" fill="#2a9d8f"/><text x="668" y="68" font-size="13" fill="#333">22</text><text x="250" y="100" text-anchor="end" font-size="13" fill="#333">Distributed Fiber Optic Sensing (DFOS)</text><rect x="260" y="87" width="363" height="20" rx="4" fill="#264653"/><text x="631" y="102" font-size="13" fill="#333">20</text><text x="250" y="134" text-anchor="end" font-size="13" fill="#333">Fiber Bragg Grating (FBG)</text><rect x="260" y="121" width="345" height="20" rx="4" fill="#e9c46a"/><text x="613" y="136" font-size="13" fill="#333">19</text><text x="250" y="168" text-anchor="end" font-size="13" fill="#333">Photonic / Silicon-Photonics Sensors</text><rect x="260" y="155" width="327" height="20" rx="4" fill="#f4a261"/><text x="595" y="170" font-size="13" fill="#333">18</text><text x="250" y="202" text-anchor="end" font-size="13" fill="#333">Optical Fiber Sensors</text><rect x="260" y="189" width="254" height="20" rx="4" fill="#e76f51"/><text x="522" y="204" font-size="13" fill="#333">14</text><text x="250" y="236" text-anchor="end" font-size="13" fill="#333">Quantum Fiber Sensors</text><rect x="260" y="223" width="109" height="20" rx="4" fill="#8ab17d"/><text x="377" y="238" font-size="13" fill="#333">6</text><text x="250" y="270" text-anchor="end" font-size="13" fill="#333">Distributed Temperature Sensing (DTS)</text><rect x="260" y="257" width="72" height="20" rx="4" fill="#457b9d"/><text x="340" y="272" font-size="13" fill="#333">4</text><text x="250" y="304" text-anchor="end" font-size="13" fill="#333">Distributed Strain Sensing (DSS)</text><rect x="260" y="291" width="36" height="20" rx="4" fill="#2a9d8f"/><text x="304" y="306" font-size="13" fill="#333">2</text><text x="250" y="338" text-anchor="end" font-size="13" fill="#333">Fiber Optic Physical Sensors</text><rect x="260" y="325" width="36" height="20" rx="4" fill="#264653"/><text x="304" y="340" font-size="13" fill="#333">2</text><text x="250" y="372" text-anchor="end" font-size="13" fill="#333">Interferometric Fiber Sensors</text><rect x="260" y="359" width="18" height="20" rx="4" fill="#e9c46a"/><text x="286" y="374" font-size="13" fill="#333">1</text><text x="250" y="406" text-anchor="end" font-size="13" fill="#333">Fiber Laser Sensors</text><rect x="260" y="393" width="18" height="20" rx="4" fill="#f4a261"/><text x="286" y="408" font-size="13" fill="#333">1</text><text x="250" y="440" text-anchor="end" font-size="13" fill="#333">Fiber Optic Chemical / Gas Sensors</text><rect x="260" y="427" width="18" height="20" rx="4" fill="#e76f51"/><text x="286" y="442" font-size="13" fill="#333">1</text></svg>