<svg xmlns="http://www.w3.org/2000/svg" width="720" height="352" viewBox="0 0 720 352" font-family="system-ui,Segoe UI,Arial"><rect width="720" height="352" fill="#ffffff"/><text x="20" y="30" font-size="18" font-weight="700" fill="#264653">Optical Fiber Sensors — papers by research area</text><text x="250" y="66" text-anchor="end" font-size="13" fill="#333">Optical Fiber Sensors</text><rect x="260" y="53" width="400" height="20" rx="4" fill="#2a9d8f"/><text x="668" y="68" font-size="13" fill="#333">13</text><text x="250" y="100" text-anchor="end" font-size="13" fill="#333">Distributed Acoustic Sensing (DAS)</text><rect x="260" y="87" width="276" height="20" rx="4" fill="#264653"/><text x="544" y="102" font-size="13" fill="#333">9</text><text x="250" y="134" text-anchor="end" font-size="13" fill="#333">Fiber Bragg Grating (FBG)</text><rect x="260" y="121" width="215" height="20" rx="4" fill="#e9c46a"/><text x="483" y="136" font-size="13" fill="#333">7</text><text x="250" y="168" text-anchor="end" font-size="13" fill="#333">Distributed Fiber Optic Sensing (DFOS)</text><rect x="260" y="155" width="153" height="20" rx="4" fill="#f4a261"/><text x="421" y="170" font-size="13" fill="#333">5</text><text x="250" y="202" text-anchor="end" font-size="13" fill="#333">Photonic / Silicon-Photonics Sensors</text><rect x="260" y="189" width="92" height="20" rx="4" fill="#e76f51"/><text x="360" y="204" font-size="13" fill="#333">3</text><text x="250" y="236" text-anchor="end" font-size="13" fill="#333">Quantum Fiber Sensors</text><rect x="260" y="223" width="30" height="20" rx="4" fill="#8ab17d"/><text x="298" y="238" font-size="13" fill="#333">1</text><text x="250" y="270" text-anchor="end" font-size="13" fill="#333">Interferometric Fiber Sensors</text><rect x="260" y="257" width="30" height="20" rx="4" fill="#457b9d"/><text x="298" y="272" font-size="13" fill="#333">1</text><text x="250" y="304" text-anchor="end" font-size="13" fill="#333">Distributed Temperature Sensing (DTS)</text><rect x="260" y="291" width="30" height="20" rx="4" fill="#2a9d8f"/><text x="298" y="306" font-size="13" fill="#333">1</text></svg>